<?xml version="1.0" encoding="UTF-8" standalone="no"?>
<svg
   xmlns:dc="http://purl.org/dc/elements/1.1/"
   xmlns:cc="http://creativecommons.org/ns#"
   xmlns:rdf="http://www.w3.org/1999/02/22-rdf-syntax-ns#"
   xmlns:svg="http://www.w3.org/2000/svg"
   xmlns="http://www.w3.org/2000/svg"
   xmlns:sodipodi="http://sodipodi.sourceforge.net/DTD/sodipodi-0.dtd"
   xmlns:inkscape="http://www.inkscape.org/namespaces/inkscape"
   height="520.93396pt"
   viewBox="0 0 521 520.93396"
   width="521pt"
   version="1.1"
   id="svg154"
   sodipodi:docname="edit.svg"
   inkscape:version="1.0.2 (1.0.2+r75+1)">
  <metadata
     id="metadata160">
    <rdf:RDF>
      <cc:Work
         rdf:about="">
        <dc:format>image/svg+xml</dc:format>
        <dc:type
           rdf:resource="http://purl.org/dc/dcmitype/StillImage" />
        <dc:title></dc:title>
      </cc:Work>
    </rdf:RDF>
  </metadata>
  <defs
     id="defs158" />
  <sodipodi:namedview
     pagecolor="#ffffff"
     bordercolor="#666666"
     borderopacity="1"
     objecttolerance="10"
     gridtolerance="10"
     guidetolerance="10"
     inkscape:pageopacity="0"
     inkscape:pageshadow="2"
     inkscape:window-width="1920"
     inkscape:window-height="987"
     id="namedview156"
     showgrid="false"
     fit-margin-top="0"
     fit-margin-left="0"
     fit-margin-right="0"
     fit-margin-bottom="0"
     inkscape:zoom="1.0356666"
     inkscape:cx="162.91105"
     inkscape:cy="440.54651"
     inkscape:window-x="0"
     inkscape:window-y="0"
     inkscape:window-maximized="1"
     inkscape:current-layer="svg154" />
  <g
     id="g1006"
     style="fill:#ffcb00;fill-opacity:1;stroke:#ffcb00;stroke-width:9;stroke-miterlimit:4;stroke-dasharray:none;stroke-opacity:1"
     transform="translate(4.5,4.4769422)">
    <path
       d="M 368,511.95703 H 58.667969 C 26.304688,511.95703 0,485.65234 0,453.28906 V 143.95703 C 0,111.59375 26.304688,85.289062 58.667969,85.289062 H 240 c 8.83203,0 16,7.167969 16,15.999998 0,8.83203 -7.16797,16 -16,16 H 58.667969 C 43.96875,117.28906 32,129.25781 32,143.95703 v 309.33203 c 0,14.69922 11.96875,26.66797 26.667969,26.66797 H 368 c 14.69922,0 26.66797,-11.96875 26.66797,-26.66797 V 271.95703 c 0,-8.83203 7.16797,-16 16,-16 8.83203,0 16,7.14844 16,16 v 181.33203 c 0,32.36328 -26.30469,58.66797 -58.66797,58.66797 z m 0,0"
       id="path148"
       style="fill:#ffcb00;fill-opacity:1;stroke:#ffcb00;stroke-width:9;stroke-miterlimit:4;stroke-dasharray:none;stroke-opacity:1" />
    <path
       d="m 187.13672,340.82031 c -4.20313,0 -8.30078,-1.66406 -11.3086,-4.6914 -3.79687,-3.77735 -5.41796,-9.21875 -4.37109,-14.44532 L 186.53906,246.25 c 0.61719,-3.11328 2.15235,-5.95312 4.3711,-8.17187 L 411.86328,17.152344 c 22.86719,-22.871094 60.07422,-22.871094 82.96484,0 C 505.89844,28.222656 512,42.945312 512,58.625 c 0,15.679688 -6.10156,30.398438 -17.19531,41.47266 L 273.87891,321.04687 c -2.21875,2.23829 -5.07813,3.75391 -8.17188,4.3711 L 190.29297,340.5 c -1.04688,0.21484 -2.11328,0.32031 -3.15625,0.32031 z m 75.43359,-31.08203 h 0.21485 z m -45.60937,-52.45703 -9.41016,47.14453 47.125,-9.42969 L 472.19141,77.484375 C 477.22656,72.425781 480,65.75 480,58.625 480,51.5 477.22656,44.820312 472.19141,39.765625 461.82422,29.375 444.90625,29.375 434.47656,39.765625 Z m 0,0"
       id="path150"
       style="fill:#ffcb00;fill-opacity:1;stroke:#ffcb00;stroke-width:9;stroke-miterlimit:4;stroke-dasharray:none;stroke-opacity:1" />
    <path
       d="m 453.33203,134.97656 c -4.09375,0 -8.19141,-1.55859 -11.30469,-4.69531 L 381.69531,69.929688 c -6.25,-6.25 -6.25,-16.382813 0,-22.632813 6.25,-6.25 16.38281,-6.25 22.63672,0 l 60.32813,60.351565 c 6.25,6.25 6.25,16.38281 0,22.63281 -3.13672,3.11719 -7.23047,4.69531 -11.32813,4.69531 z m 0,0"
       id="path152"
       style="fill:#ffcb00;fill-opacity:1;stroke:#ffcb00;stroke-width:9;stroke-miterlimit:4;stroke-dasharray:none;stroke-opacity:1" />
  </g>
</svg>
