<?xml version="1.0" encoding="UTF-8" standalone="no"?>
<svg
   xmlns:dc="http://purl.org/dc/elements/1.1/"
   xmlns:cc="http://creativecommons.org/ns#"
   xmlns:rdf="http://www.w3.org/1999/02/22-rdf-syntax-ns#"
   xmlns:svg="http://www.w3.org/2000/svg"
   xmlns="http://www.w3.org/2000/svg"
   xmlns:sodipodi="http://sodipodi.sourceforge.net/DTD/sodipodi-0.dtd"
   xmlns:inkscape="http://www.inkscape.org/namespaces/inkscape"
   height="143.9821pt"
   version="1.1"
   viewBox="-1 0 141.29955 144.80901"
   width="141.29955pt"
   id="svg7"
   sodipodi:docname="lupa.svg"
   inkscape:version="0.92.3 (unknown)">
  <metadata
     id="metadata13">
    <rdf:RDF>
      <cc:Work
         rdf:about="">
        <dc:format>image/svg+xml</dc:format>
        <dc:type
           rdf:resource="http://purl.org/dc/dcmitype/StillImage" />
        <dc:title></dc:title>
      </cc:Work>
    </rdf:RDF>
  </metadata>
  <defs
     id="defs11" />
  <sodipodi:namedview
     pagecolor="#ffffff"
     bordercolor="#666666"
     borderopacity="1"
     objecttolerance="10"
     gridtolerance="10"
     guidetolerance="10"
     inkscape:pageopacity="0"
     inkscape:pageshadow="2"
     inkscape:window-width="1920"
     inkscape:window-height="1028"
     id="namedview9"
     showgrid="false"
     fit-margin-top="1"
     fit-margin-left="1"
     fit-margin-bottom="1"
     fit-margin-right="1"
     inkscape:zoom="1.2733813"
     inkscape:cx="-50.504363"
     inkscape:cy="95.987376"
     inkscape:window-x="0"
     inkscape:window-y="24"
     inkscape:window-maximized="1"
     inkscape:current-layer="svg7" />
  <g
     id="surface1"
     style="stroke:#000000;stroke-width:3.01722956;stroke-miterlimit:4;stroke-dasharray:none;stroke-opacity:1"
     transform="translate(0.70413831,2.5058769)">
    <path
       d="m 53.457031,18.234375 c -19.238281,0 -34.835937,15.597656 -34.835937,34.839844 0,19.238281 15.597656,34.835937 34.835937,34.835937 19.234375,0 34.832031,-15.597656 34.832031,-34.835937 0,0 0,-0.0078 0,-0.01172 C 88.25,33.84375 72.675781,18.273438 53.457031,18.234375 Z m 0,65.925781 c -17.175781,0 -31.101562,-13.925781 -31.101562,-31.097656 0,-17.175781 13.925781,-31.097656 31.101562,-31.097656 17.171875,0 31.097657,13.921875 31.097657,31.097656 -0.03516,17.160156 -13.941407,31.0625 -31.097657,31.097656 z m 0,0"
       style="fill:#000000;fill-opacity:1;fill-rule:nonzero;stroke:#000000;stroke-width:3.01722956;stroke-miterlimit:4;stroke-dasharray:none;stroke-opacity:1"
       id="path2"
       inkscape:connector-curvature="0" />
    <path
       d="M 97.601562,82.351562 C 113.80078,57.953125 107.14844,25.046875 82.75,8.855469 58.355469,-7.34375 25.449219,-0.691406 9.253906,23.699219 -6.945312,48.097656 -0.292969,81.007812 24.105469,97.203125 40.59375,108.14844 61.8125,109 79.132812,99.402344 L 115.8125,135.875 c 4.76953,5.03516 12.72266,5.25391 17.76172,0.48047 5.03906,-4.76953 5.2539,-12.71875 0.48437,-17.76172 -0.15625,-0.16406 -0.3164,-0.32812 -0.48437,-0.48437 z M 53.464844,102.29297 C 26.265625,102.30469 4.203125,80.253906 4.195312,53.046875 4.191406,25.847656 26.238281,3.789062 53.441406,3.777344 c 27.203125,-0.00391 49.265624,22.042968 49.269534,49.246094 0,0.01562 0,0.02344 0,0.03906 -0.0273,27.191406 -22.062502,49.230472 -49.253909,49.253912 z m 77.476566,30.91406 c -3.44532,3.42578 -9.01172,3.42578 -12.46094,0 L 82.417969,97.410156 c 4.960937,-3.25 9.339843,-7.304687 12.964843,-11.992187 l 35.550778,35.335941 c 3.44141,3.44531 3.44141,9.03125 0,12.47656 z m 0,0"
       style="fill:#000000;fill-opacity:1;fill-rule:nonzero;stroke:#000000;stroke-width:3.01722956;stroke-miterlimit:4;stroke-dasharray:none;stroke-opacity:1"
       id="path4"
       inkscape:connector-curvature="0" />
  </g>
</svg>
