<?xml version="1.0" encoding="UTF-8" standalone="no"?>
<svg
   xmlns:dc="http://purl.org/dc/elements/1.1/"
   xmlns:cc="http://creativecommons.org/ns#"
   xmlns:rdf="http://www.w3.org/1999/02/22-rdf-syntax-ns#"
   xmlns:svg="http://www.w3.org/2000/svg"
   xmlns="http://www.w3.org/2000/svg"
   xmlns:sodipodi="http://sodipodi.sourceforge.net/DTD/sodipodi-0.dtd"
   xmlns:inkscape="http://www.inkscape.org/namespaces/inkscape"
   id="Layer_1"
   enable-background="new 0 0 511.414 511.414"
   height="512"
   viewBox="0 0 511.414 511.414"
   width="512"
   version="1.1"
   sodipodi:docname="products.svg"
   inkscape:version="1.0.2 (1.0.2+r75+1)">
  <metadata
     id="metadata9">
    <rdf:RDF>
      <cc:Work
         rdf:about="">
        <dc:format>image/svg+xml</dc:format>
        <dc:type
           rdf:resource="http://purl.org/dc/dcmitype/StillImage" />
        <dc:title></dc:title>
      </cc:Work>
    </rdf:RDF>
  </metadata>
  <defs
     id="defs7" />
  <sodipodi:namedview
     pagecolor="#ffffff"
     bordercolor="#666666"
     borderopacity="1"
     objecttolerance="10"
     gridtolerance="10"
     guidetolerance="10"
     inkscape:pageopacity="0"
     inkscape:pageshadow="2"
     inkscape:window-width="1920"
     inkscape:window-height="987"
     id="namedview5"
     showgrid="false"
     inkscape:zoom="1.5917969"
     inkscape:cx="256"
     inkscape:cy="256"
     inkscape:window-x="0"
     inkscape:window-y="0"
     inkscape:window-maximized="1"
     inkscape:current-layer="Layer_1" />
  <path
     d="m 13.719,108.838 c 0,-6.488 3.919,-12.334 9.92,-14.8 L 249.627,1.2 c 3.896,-1.6 8.264,-1.6 12.16,0 l 225.988,92.838 c 6.001,2.465 9.92,8.312 9.92,14.8 v 293.738 c 0,6.488 -3.918,12.334 -9.92,14.8 l -225.988,92.838 c -3.854,1.583 -8.186,1.617 -12.14,-10e-4 -0.193,-0.064 8.363,3.445 -226.008,-92.837 -6.002,-2.465 -9.92,-8.312 -9.92,-14.8 z m 241.988,76.886 83.268,-34.207 -179.951,-78.501 -88.837,36.495 z m 209.988,-51.67 -71.841,29.513 v 83.264 c 0,8.836 -7.164,16 -16,16 -8.836,0 -16,-7.164 -16,-16 v -70.118 l -90.147,37.033 V 471.543 L 465.695,391.851 Z M 255.707,33.297 200.241,56.083 380.192,134.584 441.227,109.51 Z m -16,180.449 -193.988,-79.692 v 257.797 l 193.988,79.692 z"
     id="path2" />
</svg>
